<svg width="64" height="64" viewBox="0 0 64 64" fill="none" xmlns="http://www.w3.org/2000/svg">
  <rect width="64" height="64" rx="16" fill="#0F1117"/>
  <rect x="8" y="8" width="48" height="48" rx="14" fill="url(#paint0_linear_1_1)"/>
  <rect x="18" y="18" width="28" height="28" rx="10" fill="#0F1117" fill-opacity="0.92"/>
  <circle cx="27" cy="29" r="3" fill="#EEF59A"/>
  <circle cx="37" cy="29" r="3" fill="#EEF59A"/>
  <path d="M26 38C27.8 39.6 29.8 40.4 32 40.4C34.2 40.4 36.2 39.6 38 38" stroke="#EEF59A" stroke-width="2.5" stroke-linecap="round"/>
  <path d="M32 14V8" stroke="#EEF59A" stroke-width="2.5" stroke-linecap="round"/>
  <path d="M32 56V50" stroke="#EEF59A" stroke-width="2.5" stroke-linecap="round"/>
  <path d="M14 32H8" stroke="#EEF59A" stroke-width="2.5" stroke-linecap="round"/>
  <path d="M56 32H50" stroke="#EEF59A" stroke-width="2.5" stroke-linecap="round"/>
  <circle cx="32" cy="8" r="3" fill="#EEF59A"/>
  <circle cx="32" cy="56" r="3" fill="#EEF59A"/>
  <circle cx="8" cy="32" r="3" fill="#EEF59A"/>
  <circle cx="56" cy="32" r="3" fill="#EEF59A"/>
  <defs>
    <linearGradient id="paint0_linear_1_1" x1="8" y1="8" x2="56" y2="56" gradientUnits="userSpaceOnUse">
      <stop stop-color="#7C3AED"/>
      <stop offset="1" stop-color="#A855F7"/>
    </linearGradient>
  </defs>
</svg>
